<mxfile host="app.diagrams.net" agent="Mozilla/5.0 (Windows NT 10.0; Win64; x64) AppleWebKit/537.36 (KHTML, like Gecko) Chrome/127.0.0.0 Safari/537.36" version="24.7.6">
  <diagram name="第 1 页" id="UxVy5oSHCcWcjwGkJ96v">
    <mxGraphModel dx="350" dy="188" grid="1" gridSize="10" guides="1" tooltips="1" connect="1" arrows="1" fold="1" page="1" pageScale="1" pageWidth="827" pageHeight="1169" math="0" shadow="0">
      <root>
        <mxCell id="0" />
        <mxCell id="1" parent="0" />
        <mxCell id="RowcjY3Cd5N3gVkiI0A4-1" value="" style="rounded=0;whiteSpace=wrap;html=1;dashed=1;dashPattern=8 8;opacity=30;" vertex="1" parent="1">
          <mxGeometry x="120" y="180" width="410" height="240" as="geometry" />
        </mxCell>
        <mxCell id="RowcjY3Cd5N3gVkiI0A4-2" value="&lt;font style=&quot;font-size: 25px;&quot;&gt;LSTM&lt;/font&gt;" style="rounded=0;whiteSpace=wrap;html=1;" vertex="1" parent="1">
          <mxGeometry x="150" y="220" width="120" height="60" as="geometry" />
        </mxCell>
        <mxCell id="RowcjY3Cd5N3gVkiI0A4-3" value="&lt;font style=&quot;font-size: 25px;&quot; face=&quot;Times New Roman&quot;&gt;RF&lt;/font&gt;" style="rounded=0;whiteSpace=wrap;html=1;align=center;" vertex="1" parent="1">
          <mxGeometry x="150" y="313" width="120" height="60" as="geometry" />
        </mxCell>
        <mxCell id="RowcjY3Cd5N3gVkiI0A4-4" value="" style="ellipse;whiteSpace=wrap;html=1;aspect=fixed;" vertex="1" parent="1">
          <mxGeometry x="340" y="225" width="50" height="50" as="geometry" />
        </mxCell>
        <mxCell id="RowcjY3Cd5N3gVkiI0A4-5" value="" style="ellipse;whiteSpace=wrap;html=1;aspect=fixed;" vertex="1" parent="1">
          <mxGeometry x="340" y="318" width="50" height="50" as="geometry" />
        </mxCell>
        <mxCell id="RowcjY3Cd5N3gVkiI0A4-6" value="&lt;span style=&quot;font-size: 25px;&quot;&gt;Final&lt;/span&gt;" style="rounded=0;whiteSpace=wrap;html=1;" vertex="1" parent="1">
          <mxGeometry x="420" y="280" width="100" height="40" as="geometry" />
        </mxCell>
        <mxCell id="RowcjY3Cd5N3gVkiI0A4-7" value="" style="endArrow=classic;html=1;rounded=0;exitX=1;exitY=0.5;exitDx=0;exitDy=0;entryX=0;entryY=0.5;entryDx=0;entryDy=0;" edge="1" parent="1" source="RowcjY3Cd5N3gVkiI0A4-2" target="RowcjY3Cd5N3gVkiI0A4-4">
          <mxGeometry width="50" height="50" relative="1" as="geometry">
            <mxPoint x="280" y="310" as="sourcePoint" />
            <mxPoint x="340" y="250" as="targetPoint" />
          </mxGeometry>
        </mxCell>
        <mxCell id="RowcjY3Cd5N3gVkiI0A4-13" value="" style="endArrow=classic;html=1;rounded=0;entryX=0;entryY=0.5;entryDx=0;entryDy=0;exitX=1;exitY=0.5;exitDx=0;exitDy=0;" edge="1" parent="1" source="RowcjY3Cd5N3gVkiI0A4-3" target="RowcjY3Cd5N3gVkiI0A4-5">
          <mxGeometry width="50" height="50" relative="1" as="geometry">
            <mxPoint x="280" y="270" as="sourcePoint" />
            <mxPoint x="350" y="260" as="targetPoint" />
          </mxGeometry>
        </mxCell>
        <mxCell id="RowcjY3Cd5N3gVkiI0A4-14" value="" style="endArrow=classic;html=1;rounded=0;entryX=0;entryY=1;entryDx=0;entryDy=0;exitX=1;exitY=0.5;exitDx=0;exitDy=0;" edge="1" parent="1" source="RowcjY3Cd5N3gVkiI0A4-5" target="RowcjY3Cd5N3gVkiI0A4-6">
          <mxGeometry width="50" height="50" relative="1" as="geometry">
            <mxPoint x="379" y="353" as="sourcePoint" />
            <mxPoint x="449" y="353" as="targetPoint" />
          </mxGeometry>
        </mxCell>
        <mxCell id="RowcjY3Cd5N3gVkiI0A4-15" value="" style="endArrow=classic;html=1;rounded=0;entryX=0;entryY=0;entryDx=0;entryDy=0;exitX=1;exitY=0.5;exitDx=0;exitDy=0;" edge="1" parent="1" source="RowcjY3Cd5N3gVkiI0A4-4" target="RowcjY3Cd5N3gVkiI0A4-6">
          <mxGeometry width="50" height="50" relative="1" as="geometry">
            <mxPoint x="400" y="353" as="sourcePoint" />
            <mxPoint x="430" y="330" as="targetPoint" />
          </mxGeometry>
        </mxCell>
      </root>
    </mxGraphModel>
  </diagram>
</mxfile>
